<svg width="64" height="64" viewBox="0 0 64 64" fill="none" xmlns="http://www.w3.org/2000/svg">
<path d="M50.2201 3.99996C50.2199 3.61663 50.1095 3.24144 49.902 2.91907C49.6946 2.5967 49.3989 2.34072 49.0502 2.18162C48.7014 2.02252 48.3143 1.967 47.9349 2.02166C47.5555 2.07633 47.1998 2.23888 46.9101 2.48996L14.4701 30.49C14.2573 30.6776 14.0868 30.9085 13.9701 31.1671C13.8533 31.4257 13.793 31.7062 13.793 31.99C13.793 32.2737 13.8533 32.5542 13.9701 32.8128C14.0868 33.0715 14.2573 33.3023 14.4701 33.49L46.9101 61.49C47.1985 61.74 47.5523 61.9022 47.93 61.9576C48.3076 62.013 48.6931 61.9592 49.0412 61.8025C49.3892 61.6459 49.6851 61.3929 49.894 61.0735C50.1029 60.7541 50.2161 60.3816 50.2201 60V3.99996Z" fill="#ffffff" id="id_102"></path>
</svg>